<mxfile host="app.diagrams.net" modified="2024-06-27T05:58:26.507Z" agent="Mozilla/5.0 (Windows NT 10.0; Win64; x64) AppleWebKit/537.36 (KHTML, like Gecko) Chrome/126.0.0.0 Safari/537.36 Edg/126.0.0.0" etag="U4Lpn0zo2gsciqWFcauH" version="24.6.3" type="device">
  <diagram name="Page-1" id="o09CeiqTKdcAHX4LXcXQ">
    <mxGraphModel dx="576" dy="785" grid="1" gridSize="10" guides="1" tooltips="1" connect="1" arrows="1" fold="1" page="1" pageScale="1" pageWidth="850" pageHeight="1100" math="0" shadow="0">
      <root>
        <mxCell id="0" />
        <mxCell id="1" parent="0" />
        <mxCell id="KUSok9uALpGMFb_UBU0I-1" value="User A" style="rounded=1;whiteSpace=wrap;html=1;fillColor=#dae8fc;strokeColor=#6c8ebf;shadow=1;" parent="1" vertex="1">
          <mxGeometry x="1000" y="440" width="60" height="30" as="geometry" />
        </mxCell>
        <mxCell id="KUSok9uALpGMFb_UBU0I-2" value="" style="endArrow=none;html=1;rounded=0;entryX=0.5;entryY=1;entryDx=0;entryDy=0;dashed=1;shadow=1;fillColor=#dae8fc;strokeColor=#6c8ebf;" parent="1" source="KUSok9uALpGMFb_UBU0I-7" target="KUSok9uALpGMFb_UBU0I-1" edge="1">
          <mxGeometry width="50" height="50" relative="1" as="geometry">
            <mxPoint x="1030" y="1040" as="sourcePoint" />
            <mxPoint x="1030" y="790" as="targetPoint" />
          </mxGeometry>
        </mxCell>
        <mxCell id="KUSok9uALpGMFb_UBU0I-3" value="WebApp" style="rounded=1;whiteSpace=wrap;html=1;fillColor=#f8cecc;strokeColor=#b85450;shadow=1;" parent="1" vertex="1">
          <mxGeometry x="1170" y="440" width="60" height="30" as="geometry" />
        </mxCell>
        <mxCell id="KUSok9uALpGMFb_UBU0I-4" value="" style="endArrow=none;html=1;rounded=0;entryX=0.5;entryY=1;entryDx=0;entryDy=0;dashed=1;shadow=1;fillColor=#f8cecc;strokeColor=#b85450;" parent="1" target="KUSok9uALpGMFb_UBU0I-3" edge="1">
          <mxGeometry width="50" height="50" relative="1" as="geometry">
            <mxPoint x="1200" y="1040" as="sourcePoint" />
            <mxPoint x="1200" y="790" as="targetPoint" />
          </mxGeometry>
        </mxCell>
        <mxCell id="KUSok9uALpGMFb_UBU0I-5" value="User B" style="rounded=1;whiteSpace=wrap;html=1;fillColor=#d5e8d4;strokeColor=#82b366;shadow=1;" parent="1" vertex="1">
          <mxGeometry x="1340" y="440" width="60" height="30" as="geometry" />
        </mxCell>
        <mxCell id="KUSok9uALpGMFb_UBU0I-6" value="" style="endArrow=none;html=1;rounded=0;entryX=0.5;entryY=1;entryDx=0;entryDy=0;dashed=1;shadow=1;fillColor=#d5e8d4;strokeColor=#82b366;" parent="1" target="KUSok9uALpGMFb_UBU0I-5" edge="1">
          <mxGeometry width="50" height="50" relative="1" as="geometry">
            <mxPoint x="1370" y="1040" as="sourcePoint" />
            <mxPoint x="1370" y="790" as="targetPoint" />
          </mxGeometry>
        </mxCell>
        <mxCell id="KUSok9uALpGMFb_UBU0I-8" value="" style="endArrow=none;html=1;rounded=0;entryX=0.5;entryY=1;entryDx=0;entryDy=0;dashed=1;fillColor=#dae8fc;strokeColor=#6c8ebf;shadow=1;" parent="1" target="KUSok9uALpGMFb_UBU0I-7" edge="1">
          <mxGeometry width="50" height="50" relative="1" as="geometry">
            <mxPoint x="1030" y="1040" as="sourcePoint" />
            <mxPoint x="1030" y="460" as="targetPoint" />
          </mxGeometry>
        </mxCell>
        <mxCell id="KUSok9uALpGMFb_UBU0I-7" value="" style="rounded=1;whiteSpace=wrap;html=1;arcSize=15;fillColor=#dae8fc;strokeColor=#6c8ebf;shadow=1;" parent="1" vertex="1">
          <mxGeometry x="1025" y="500" width="10" height="520" as="geometry" />
        </mxCell>
        <mxCell id="KUSok9uALpGMFb_UBU0I-9" value="" style="endArrow=classic;html=1;rounded=0;fontFamily=Helvetica;fontSize=12;fontColor=default;shadow=1;" parent="1" edge="1">
          <mxGeometry width="50" height="50" relative="1" as="geometry">
            <mxPoint x="1035" y="500" as="sourcePoint" />
            <mxPoint x="1200" y="500" as="targetPoint" />
          </mxGeometry>
        </mxCell>
        <mxCell id="KUSok9uALpGMFb_UBU0I-10" value="&lt;font style=&quot;font-size: 9px;&quot;&gt;Create connection&lt;/font&gt;" style="edgeLabel;html=1;align=center;verticalAlign=middle;resizable=0;points=[];rounded=1;strokeColor=default;fontFamily=Helvetica;fontSize=12;fontColor=default;fillColor=default;" parent="KUSok9uALpGMFb_UBU0I-9" vertex="1" connectable="0">
          <mxGeometry x="-0.0009" y="-2" relative="1" as="geometry">
            <mxPoint y="-12" as="offset" />
          </mxGeometry>
        </mxCell>
        <mxCell id="KUSok9uALpGMFb_UBU0I-11" value="" style="endArrow=classic;html=1;rounded=0;fontFamily=Helvetica;fontSize=12;fontColor=default;dashed=1;dashPattern=8 8;shadow=1;" parent="1" edge="1">
          <mxGeometry width="50" height="50" relative="1" as="geometry">
            <mxPoint x="1200" y="530" as="sourcePoint" />
            <mxPoint x="1035" y="530" as="targetPoint" />
          </mxGeometry>
        </mxCell>
        <mxCell id="KUSok9uALpGMFb_UBU0I-12" value="&lt;font style=&quot;font-size: 9px;&quot;&gt;Generate ID, link, QR code&lt;/font&gt;" style="edgeLabel;html=1;align=center;verticalAlign=middle;resizable=0;points=[];rounded=1;strokeColor=default;fontFamily=Helvetica;fontSize=12;fontColor=default;fillColor=default;" parent="KUSok9uALpGMFb_UBU0I-11" vertex="1" connectable="0">
          <mxGeometry x="0.0701" relative="1" as="geometry">
            <mxPoint x="7" y="-9" as="offset" />
          </mxGeometry>
        </mxCell>
        <mxCell id="KUSok9uALpGMFb_UBU0I-13" value="" style="rounded=1;whiteSpace=wrap;html=1;strokeColor=#9673a6;align=center;verticalAlign=middle;fontFamily=Helvetica;fontSize=12;fillColor=none;dashed=1;arcSize=10;" parent="1" vertex="1">
          <mxGeometry x="1180" y="540" width="210" height="220" as="geometry" />
        </mxCell>
        <mxCell id="KUSok9uALpGMFb_UBU0I-14" value="&lt;font style=&quot;font-size: 9px;&quot;&gt;User B connects&lt;/font&gt;" style="text;html=1;align=center;verticalAlign=middle;whiteSpace=wrap;rounded=0;fontFamily=Helvetica;fontSize=12;fontColor=default;" parent="1" vertex="1">
          <mxGeometry x="1200" y="540" width="80" height="20" as="geometry" />
        </mxCell>
        <mxCell id="KUSok9uALpGMFb_UBU0I-15" value="" style="endArrow=classic;html=1;rounded=0;fontFamily=Helvetica;fontSize=12;fontColor=default;shadow=1;" parent="1" edge="1">
          <mxGeometry width="50" height="50" relative="1" as="geometry">
            <mxPoint x="1370" y="580" as="sourcePoint" />
            <mxPoint x="1200" y="580" as="targetPoint" />
          </mxGeometry>
        </mxCell>
        <mxCell id="KUSok9uALpGMFb_UBU0I-16" value="&lt;font style=&quot;font-size: 9px;&quot;&gt;Start connection&lt;/font&gt;" style="edgeLabel;html=1;align=center;verticalAlign=middle;resizable=0;points=[];rounded=1;strokeColor=default;fontFamily=Helvetica;fontSize=12;fontColor=default;fillColor=default;" parent="KUSok9uALpGMFb_UBU0I-15" vertex="1" connectable="0">
          <mxGeometry x="0.0148" y="-1" relative="1" as="geometry">
            <mxPoint x="2" y="-8" as="offset" />
          </mxGeometry>
        </mxCell>
        <mxCell id="KUSok9uALpGMFb_UBU0I-17" value="" style="endArrow=none;html=1;rounded=0;fontFamily=Helvetica;fontSize=12;fontColor=default;exitX=0.905;exitY=0.2;exitDx=0;exitDy=0;exitPerimeter=0;shadow=1;startArrow=classic;startFill=1;endFill=0;dashed=1;dashPattern=8 8;" parent="1" edge="1">
          <mxGeometry width="50" height="50" relative="1" as="geometry">
            <mxPoint x="1370" y="610" as="sourcePoint" />
            <mxPoint x="1200" y="610" as="targetPoint" />
          </mxGeometry>
        </mxCell>
        <mxCell id="KUSok9uALpGMFb_UBU0I-18" value="&lt;font style=&quot;font-size: 9px;&quot;&gt;Prompt for ID&lt;/font&gt;" style="edgeLabel;html=1;align=center;verticalAlign=middle;resizable=0;points=[];rounded=1;strokeColor=default;fontFamily=Helvetica;fontSize=12;fontColor=default;fillColor=default;" parent="KUSok9uALpGMFb_UBU0I-17" vertex="1" connectable="0">
          <mxGeometry x="0.0148" y="-1" relative="1" as="geometry">
            <mxPoint x="2" y="-8" as="offset" />
          </mxGeometry>
        </mxCell>
        <mxCell id="KUSok9uALpGMFb_UBU0I-19" value="" style="endArrow=classic;html=1;rounded=0;fontFamily=Helvetica;fontSize=12;fontColor=default;exitX=0.905;exitY=0.2;exitDx=0;exitDy=0;exitPerimeter=0;shadow=1;" parent="1" edge="1">
          <mxGeometry width="50" height="50" relative="1" as="geometry">
            <mxPoint x="1370" y="639.62" as="sourcePoint" />
            <mxPoint x="1200" y="639.62" as="targetPoint" />
          </mxGeometry>
        </mxCell>
        <mxCell id="KUSok9uALpGMFb_UBU0I-20" value="&lt;font style=&quot;font-size: 9px;&quot;&gt;Paste ID&lt;/font&gt;" style="edgeLabel;html=1;align=center;verticalAlign=middle;resizable=0;points=[];rounded=1;strokeColor=default;fontFamily=Helvetica;fontSize=12;fontColor=default;fillColor=default;" parent="KUSok9uALpGMFb_UBU0I-19" vertex="1" connectable="0">
          <mxGeometry x="0.0148" y="-1" relative="1" as="geometry">
            <mxPoint x="2" y="-8" as="offset" />
          </mxGeometry>
        </mxCell>
        <mxCell id="KUSok9uALpGMFb_UBU0I-21" value="" style="rounded=1;whiteSpace=wrap;html=1;strokeColor=#d6b656;align=center;verticalAlign=middle;fontFamily=Helvetica;fontSize=12;fillColor=none;dashed=1;" parent="1" vertex="1">
          <mxGeometry x="1190" y="660" width="190" height="90" as="geometry" />
        </mxCell>
        <mxCell id="KUSok9uALpGMFb_UBU0I-22" value="&lt;font style=&quot;font-size: 9px;&quot;&gt;ID match&lt;/font&gt;" style="text;html=1;align=center;verticalAlign=middle;whiteSpace=wrap;rounded=0;fontFamily=Helvetica;fontSize=12;fontColor=default;" parent="1" vertex="1">
          <mxGeometry x="1200" y="660" width="50" height="10" as="geometry" />
        </mxCell>
        <mxCell id="KUSok9uALpGMFb_UBU0I-23" value="" style="endArrow=none;html=1;rounded=0;fontFamily=Helvetica;fontSize=12;fontColor=default;exitX=0.905;exitY=0.2;exitDx=0;exitDy=0;exitPerimeter=0;shadow=1;startArrow=classic;startFill=1;endFill=0;dashed=1;dashPattern=8 8;" parent="1" edge="1">
          <mxGeometry width="50" height="50" relative="1" as="geometry">
            <mxPoint x="1370" y="690" as="sourcePoint" />
            <mxPoint x="1200" y="690" as="targetPoint" />
          </mxGeometry>
        </mxCell>
        <mxCell id="KUSok9uALpGMFb_UBU0I-24" value="&lt;font style=&quot;font-size: 9px;&quot;&gt;Connection successful&lt;/font&gt;" style="edgeLabel;html=1;align=center;verticalAlign=middle;resizable=0;points=[];rounded=1;strokeColor=default;fontFamily=Helvetica;fontSize=12;fontColor=default;fillColor=default;" parent="KUSok9uALpGMFb_UBU0I-23" vertex="1" connectable="0">
          <mxGeometry x="0.0148" y="-1" relative="1" as="geometry">
            <mxPoint x="2" y="-8" as="offset" />
          </mxGeometry>
        </mxCell>
        <mxCell id="KUSok9uALpGMFb_UBU0I-25" value="" style="endArrow=none;html=1;rounded=0;fontFamily=Helvetica;fontSize=12;fontColor=default;entryX=1;entryY=0.562;entryDx=0;entryDy=0;entryPerimeter=0;dashed=1;fillColor=#fff2cc;strokeColor=#d6b656;" parent="1" target="KUSok9uALpGMFb_UBU0I-21" edge="1">
          <mxGeometry width="50" height="50" relative="1" as="geometry">
            <mxPoint x="1190" y="710" as="sourcePoint" />
            <mxPoint x="1240" y="660" as="targetPoint" />
          </mxGeometry>
        </mxCell>
        <mxCell id="KUSok9uALpGMFb_UBU0I-26" value="&lt;font style=&quot;font-size: 9px;&quot;&gt;ID mismatch&lt;/font&gt;" style="text;html=1;align=center;verticalAlign=middle;whiteSpace=wrap;rounded=0;fontFamily=Helvetica;fontSize=12;fontColor=default;" parent="1" vertex="1">
          <mxGeometry x="1200" y="710" width="60" height="10" as="geometry" />
        </mxCell>
        <mxCell id="KUSok9uALpGMFb_UBU0I-27" value="" style="endArrow=none;html=1;rounded=0;fontFamily=Helvetica;fontSize=12;fontColor=default;exitX=0.905;exitY=0.2;exitDx=0;exitDy=0;exitPerimeter=0;shadow=1;startArrow=classic;startFill=1;endFill=0;dashed=1;dashPattern=8 8;" parent="1" edge="1">
          <mxGeometry width="50" height="50" relative="1" as="geometry">
            <mxPoint x="1370" y="740" as="sourcePoint" />
            <mxPoint x="1200" y="740" as="targetPoint" />
          </mxGeometry>
        </mxCell>
        <mxCell id="KUSok9uALpGMFb_UBU0I-28" value="&lt;font style=&quot;font-size: 9px;&quot;&gt;Connection failed&lt;/font&gt;" style="edgeLabel;html=1;align=center;verticalAlign=middle;resizable=0;points=[];rounded=1;strokeColor=default;fontFamily=Helvetica;fontSize=12;fontColor=default;fillColor=default;" parent="KUSok9uALpGMFb_UBU0I-27" vertex="1" connectable="0">
          <mxGeometry x="0.0148" y="-1" relative="1" as="geometry">
            <mxPoint x="2" y="-8" as="offset" />
          </mxGeometry>
        </mxCell>
        <mxCell id="KUSok9uALpGMFb_UBU0I-30" value="" style="endArrow=none;html=1;rounded=0;fontFamily=Helvetica;fontSize=12;fontColor=default;shadow=1;startArrow=classic;startFill=1;endFill=0;" parent="1" edge="1">
          <mxGeometry width="50" height="50" relative="1" as="geometry">
            <mxPoint x="1200" y="780" as="sourcePoint" />
            <mxPoint x="1035" y="780" as="targetPoint" />
          </mxGeometry>
        </mxCell>
        <mxCell id="KUSok9uALpGMFb_UBU0I-31" value="&lt;font style=&quot;font-size: 9px;&quot;&gt;View connection list&lt;/font&gt;" style="edgeLabel;html=1;align=center;verticalAlign=middle;resizable=0;points=[];rounded=1;strokeColor=default;fontFamily=Helvetica;fontSize=12;fontColor=default;fillColor=default;" parent="KUSok9uALpGMFb_UBU0I-30" vertex="1" connectable="0">
          <mxGeometry x="0.0148" y="-1" relative="1" as="geometry">
            <mxPoint x="2" y="-8" as="offset" />
          </mxGeometry>
        </mxCell>
        <mxCell id="KUSok9uALpGMFb_UBU0I-32" value="" style="endArrow=none;html=1;rounded=0;fontFamily=Helvetica;fontSize=12;fontColor=default;shadow=1;startArrow=classic;startFill=1;endFill=0;" parent="1" edge="1">
          <mxGeometry width="50" height="50" relative="1" as="geometry">
            <mxPoint x="1200" y="810" as="sourcePoint" />
            <mxPoint x="1035" y="810" as="targetPoint" />
          </mxGeometry>
        </mxCell>
        <mxCell id="KUSok9uALpGMFb_UBU0I-33" value="&lt;font style=&quot;font-size: 9px;&quot;&gt;Select user to send file&lt;/font&gt;" style="edgeLabel;html=1;align=center;verticalAlign=middle;resizable=0;points=[];rounded=1;strokeColor=default;fontFamily=Helvetica;fontSize=12;fontColor=default;fillColor=default;" parent="KUSok9uALpGMFb_UBU0I-32" vertex="1" connectable="0">
          <mxGeometry x="0.0148" y="-1" relative="1" as="geometry">
            <mxPoint x="2" y="-8" as="offset" />
          </mxGeometry>
        </mxCell>
        <mxCell id="KUSok9uALpGMFb_UBU0I-34" value="" style="endArrow=none;html=1;rounded=0;fontFamily=Helvetica;fontSize=12;fontColor=default;shadow=1;startArrow=classic;startFill=1;endFill=0;" parent="1" edge="1">
          <mxGeometry width="50" height="50" relative="1" as="geometry">
            <mxPoint x="1200" y="840" as="sourcePoint" />
            <mxPoint x="1035" y="840" as="targetPoint" />
          </mxGeometry>
        </mxCell>
        <mxCell id="KUSok9uALpGMFb_UBU0I-35" value="&lt;font style=&quot;font-size: 9px;&quot;&gt;Upload and send file&lt;/font&gt;" style="edgeLabel;html=1;align=center;verticalAlign=middle;resizable=0;points=[];rounded=1;strokeColor=default;fontFamily=Helvetica;fontSize=12;fontColor=default;fillColor=default;" parent="KUSok9uALpGMFb_UBU0I-34" vertex="1" connectable="0">
          <mxGeometry x="0.0148" y="-1" relative="1" as="geometry">
            <mxPoint x="2" y="-8" as="offset" />
          </mxGeometry>
        </mxCell>
        <mxCell id="KUSok9uALpGMFb_UBU0I-38" value="" style="endArrow=none;html=1;rounded=0;fontFamily=Helvetica;fontSize=12;fontColor=default;exitX=0.905;exitY=0.2;exitDx=0;exitDy=0;exitPerimeter=0;shadow=1;startArrow=classic;startFill=1;endFill=0;dashed=1;dashPattern=8 8;" parent="1" edge="1">
          <mxGeometry width="50" height="50" relative="1" as="geometry">
            <mxPoint x="1370" y="850" as="sourcePoint" />
            <mxPoint x="1200" y="850" as="targetPoint" />
          </mxGeometry>
        </mxCell>
        <mxCell id="KUSok9uALpGMFb_UBU0I-39" value="&lt;font style=&quot;font-size: 9px;&quot;&gt;Display file received&lt;/font&gt;" style="edgeLabel;html=1;align=center;verticalAlign=middle;resizable=0;points=[];rounded=1;strokeColor=default;fontFamily=Helvetica;fontSize=12;fontColor=default;fillColor=default;" parent="KUSok9uALpGMFb_UBU0I-38" vertex="1" connectable="0">
          <mxGeometry x="0.0148" y="-1" relative="1" as="geometry">
            <mxPoint x="2" y="-8" as="offset" />
          </mxGeometry>
        </mxCell>
        <mxCell id="KUSok9uALpGMFb_UBU0I-40" value="" style="endArrow=classic;html=1;rounded=0;fontFamily=Helvetica;fontSize=12;fontColor=default;exitX=0.905;exitY=0.2;exitDx=0;exitDy=0;exitPerimeter=0;shadow=1;" parent="1" edge="1">
          <mxGeometry width="50" height="50" relative="1" as="geometry">
            <mxPoint x="1370" y="880" as="sourcePoint" />
            <mxPoint x="1200" y="880" as="targetPoint" />
          </mxGeometry>
        </mxCell>
        <mxCell id="KUSok9uALpGMFb_UBU0I-41" value="&lt;font style=&quot;font-size: 9px;&quot;&gt;Choose to download file&lt;/font&gt;" style="edgeLabel;html=1;align=center;verticalAlign=middle;resizable=0;points=[];rounded=1;strokeColor=default;fontFamily=Helvetica;fontSize=12;fontColor=default;fillColor=default;" parent="KUSok9uALpGMFb_UBU0I-40" vertex="1" connectable="0">
          <mxGeometry x="0.0148" y="-1" relative="1" as="geometry">
            <mxPoint x="2" y="-8" as="offset" />
          </mxGeometry>
        </mxCell>
        <mxCell id="KUSok9uALpGMFb_UBU0I-42" value="" style="rounded=1;whiteSpace=wrap;html=1;strokeColor=#82b366;align=center;verticalAlign=middle;fontFamily=Helvetica;fontSize=12;fillColor=none;dashed=1;" parent="1" vertex="1">
          <mxGeometry x="1190" y="900" width="190" height="90" as="geometry" />
        </mxCell>
        <mxCell id="KUSok9uALpGMFb_UBU0I-43" value="" style="endArrow=classic;html=1;rounded=0;fontFamily=Helvetica;fontSize=12;fontColor=default;shadow=1;" parent="1" edge="1">
          <mxGeometry width="50" height="50" relative="1" as="geometry">
            <mxPoint x="1370" y="934" as="sourcePoint" />
            <mxPoint x="1200" y="935" as="targetPoint" />
          </mxGeometry>
        </mxCell>
        <mxCell id="KUSok9uALpGMFb_UBU0I-44" value="&lt;font style=&quot;font-size: 9px;&quot;&gt;Download file&lt;/font&gt;" style="edgeLabel;html=1;align=center;verticalAlign=middle;resizable=0;points=[];rounded=1;strokeColor=default;fontFamily=Helvetica;fontSize=12;fontColor=default;fillColor=default;" parent="KUSok9uALpGMFb_UBU0I-43" vertex="1" connectable="0">
          <mxGeometry x="0.005" y="-4" relative="1" as="geometry">
            <mxPoint x="2" y="-5" as="offset" />
          </mxGeometry>
        </mxCell>
        <mxCell id="KUSok9uALpGMFb_UBU0I-45" value="&lt;font style=&quot;font-size: 9px;&quot;&gt;User B accepts file&lt;/font&gt;" style="text;html=1;align=center;verticalAlign=middle;whiteSpace=wrap;rounded=0;fontFamily=Helvetica;fontSize=12;fontColor=default;" parent="1" vertex="1">
          <mxGeometry x="1200" y="900" width="80" height="10" as="geometry" />
        </mxCell>
        <mxCell id="KUSok9uALpGMFb_UBU0I-46" value="" style="endArrow=none;html=1;rounded=0;fontFamily=Helvetica;fontSize=12;fontColor=default;entryX=0.999;entryY=0.552;entryDx=0;entryDy=0;entryPerimeter=0;dashed=1;fillColor=#d5e8d4;strokeColor=#82b366;" parent="1" target="KUSok9uALpGMFb_UBU0I-42" edge="1">
          <mxGeometry width="50" height="50" relative="1" as="geometry">
            <mxPoint x="1190" y="950" as="sourcePoint" />
            <mxPoint x="1240" y="900" as="targetPoint" />
          </mxGeometry>
        </mxCell>
        <mxCell id="KUSok9uALpGMFb_UBU0I-49" value="&lt;font style=&quot;font-size: 9px;&quot;&gt;User B rejects file&lt;/font&gt;" style="text;html=1;align=center;verticalAlign=middle;whiteSpace=wrap;rounded=0;fontFamily=Helvetica;fontSize=12;fontColor=default;" parent="1" vertex="1">
          <mxGeometry x="1200" y="950" width="80" height="10" as="geometry" />
        </mxCell>
        <mxCell id="KUSok9uALpGMFb_UBU0I-50" value="" style="endArrow=classic;html=1;rounded=0;fontFamily=Helvetica;fontSize=12;fontColor=default;exitX=0.947;exitY=0.292;exitDx=0;exitDy=0;exitPerimeter=0;shadow=1;" parent="1" edge="1">
          <mxGeometry width="50" height="50" relative="1" as="geometry">
            <mxPoint x="1370" y="980" as="sourcePoint" />
            <mxPoint x="1200" y="980" as="targetPoint" />
          </mxGeometry>
        </mxCell>
        <mxCell id="KUSok9uALpGMFb_UBU0I-51" value="&lt;font style=&quot;font-size: 9px;&quot;&gt;Reject file&lt;/font&gt;" style="edgeLabel;html=1;align=center;verticalAlign=middle;resizable=0;points=[];rounded=1;strokeColor=default;fontFamily=Helvetica;fontSize=12;fontColor=default;fillColor=default;" parent="KUSok9uALpGMFb_UBU0I-50" vertex="1" connectable="0">
          <mxGeometry x="0.005" y="-4" relative="1" as="geometry">
            <mxPoint x="2" y="-5" as="offset" />
          </mxGeometry>
        </mxCell>
        <mxCell id="KUSok9uALpGMFb_UBU0I-52" value="&lt;font style=&quot;font-size: 9px;&quot;&gt;Group sharing service sequence diagram&lt;/font&gt;" style="text;html=1;align=center;verticalAlign=middle;whiteSpace=wrap;rounded=0;fontFamily=Helvetica;fontSize=12;fontColor=default;" parent="1" vertex="1">
          <mxGeometry x="1105" y="1040" width="190" height="20" as="geometry" />
        </mxCell>
        <mxCell id="BVbF2408C14BiHhSuBC7-1" value="" style="endArrow=none;html=1;rounded=0;fontFamily=Helvetica;fontSize=12;fontColor=default;shadow=1;startArrow=classic;startFill=1;endFill=0;" parent="1" edge="1">
          <mxGeometry width="50" height="50" relative="1" as="geometry">
            <mxPoint x="1200" y="1000" as="sourcePoint" />
            <mxPoint x="1035" y="1000" as="targetPoint" />
          </mxGeometry>
        </mxCell>
        <mxCell id="BVbF2408C14BiHhSuBC7-2" value="&lt;font style=&quot;font-size: 9px;&quot;&gt;Close connection&lt;/font&gt;" style="edgeLabel;html=1;align=center;verticalAlign=middle;resizable=0;points=[];rounded=1;strokeColor=default;fontFamily=Helvetica;fontSize=12;fontColor=default;fillColor=default;" parent="BVbF2408C14BiHhSuBC7-1" vertex="1" connectable="0">
          <mxGeometry x="0.0148" y="-1" relative="1" as="geometry">
            <mxPoint x="2" y="-8" as="offset" />
          </mxGeometry>
        </mxCell>
        <mxCell id="BVbF2408C14BiHhSuBC7-3" value="" style="endArrow=none;html=1;rounded=0;fontFamily=Helvetica;fontSize=12;fontColor=default;exitX=0.905;exitY=0.2;exitDx=0;exitDy=0;exitPerimeter=0;shadow=1;startArrow=classic;startFill=1;endFill=0;dashed=1;dashPattern=8 8;" parent="1" edge="1">
          <mxGeometry width="50" height="50" relative="1" as="geometry">
            <mxPoint x="1370" y="1020" as="sourcePoint" />
            <mxPoint x="1200" y="1020" as="targetPoint" />
          </mxGeometry>
        </mxCell>
        <mxCell id="BVbF2408C14BiHhSuBC7-4" value="&lt;font style=&quot;font-size: 9px;&quot;&gt;Remove closed connection&lt;/font&gt;" style="edgeLabel;html=1;align=center;verticalAlign=middle;resizable=0;points=[];rounded=1;strokeColor=default;fontFamily=Helvetica;fontSize=12;fontColor=default;fillColor=default;" parent="BVbF2408C14BiHhSuBC7-3" vertex="1" connectable="0">
          <mxGeometry x="0.0148" y="-1" relative="1" as="geometry">
            <mxPoint x="2" y="-8" as="offset" />
          </mxGeometry>
        </mxCell>
      </root>
    </mxGraphModel>
  </diagram>
</mxfile>
